<svg width="120" height="32" viewBox="0 0 120 32" fill="none" xmlns="http://www.w3.org/2000/svg">
<path class="fill-black" d="M9.93469 22.49C9.48802 22.49 9.14802 22.3567 8.91469 22.09C8.68802 21.83 8.54802 21.4267 8.49469 20.88C8.48135 20.6667 8.47135 20.3933 8.46469 20.06C8.45802 19.7267 8.45469 19.3533 8.45469 18.94C8.45469 18.5267 8.45802 18.0967 8.46469 17.65C8.47135 17.1967 8.47469 16.75 8.47469 16.31C8.48135 15.8633 8.48469 15.4433 8.48469 15.05C8.49135 14.6567 8.49469 14.3067 8.49469 14C8.49469 13.5733 8.44135 13.28 8.33469 13.12C8.22802 12.96 7.98802 12.88 7.61469 12.88C7.22135 12.88 6.82469 12.91 6.42469 12.97C6.03135 13.03 5.63802 13.06 5.24469 13.06C5.01135 13.06 4.80135 13.0167 4.61469 12.93C4.42802 12.8367 4.28135 12.7 4.17469 12.52C4.07469 12.34 4.02469 12.1233 4.02469 11.87C4.02469 11.5767 4.15802 11.3233 4.42469 11.11C4.69135 10.8967 5.05469 10.72 5.51469 10.58C5.98135 10.4333 6.52135 10.3167 7.13469 10.23C7.74802 10.1433 8.40469 10.0833 9.10469 10.05C9.80469 10.01 10.5147 9.99 11.2347 9.99C11.7547 9.99 12.2714 10 12.7847 10.02C13.3047 10.04 13.7914 10.0833 14.2447 10.15C14.7047 10.21 15.108 10.3033 15.4547 10.43C15.8014 10.5567 16.0747 10.7267 16.2747 10.94C16.4814 11.1467 16.5847 11.4067 16.5847 11.72C16.5847 12.0067 16.528 12.25 16.4147 12.45C16.308 12.6433 16.1514 12.79 15.9447 12.89C15.738 12.99 15.4847 13.04 15.1847 13.04C14.8247 13.04 14.5347 13.03 14.3147 13.01C14.0947 12.99 13.828 12.98 13.5147 12.98C13.068 12.98 12.738 13.02 12.5247 13.1C12.318 13.18 12.1847 13.33 12.1247 13.55C12.0647 13.77 12.028 14.0967 12.0147 14.53C12.0014 14.7967 11.9847 15.0833 11.9647 15.39C11.9514 15.6967 11.9314 16.0167 11.9047 16.35C11.8847 16.6833 11.858 17.02 11.8247 17.36C11.798 17.7 11.7647 18.0367 11.7247 18.37C11.6914 18.6967 11.658 19.0167 11.6247 19.33C11.5914 19.6367 11.5547 19.9267 11.5147 20.2C11.4747 20.4733 11.4347 20.72 11.3947 20.94C11.288 21.32 11.178 21.6233 11.0647 21.85C10.9514 22.0767 10.808 22.24 10.6347 22.34C10.4614 22.44 10.228 22.49 9.93469 22.49ZM22.1747 22.74C21.0347 22.74 20.0447 22.5667 19.2047 22.22C18.3647 21.8733 17.7147 21.34 17.2547 20.62C16.8014 19.9 16.5747 18.9867 16.5747 17.88C16.5747 16.96 16.728 16.1567 17.0347 15.47C17.3414 14.7767 17.7647 14.2 18.3047 13.74C18.8514 13.2733 19.4814 12.9233 20.1947 12.69C20.908 12.45 21.668 12.33 22.4747 12.33C23.0214 12.33 23.548 12.3867 24.0547 12.5C24.5614 12.6067 25.0114 12.7767 25.4047 13.01C25.8047 13.2433 26.118 13.5433 26.3447 13.91C26.578 14.2767 26.6947 14.72 26.6947 15.24C26.6947 15.74 26.5914 16.1533 26.3847 16.48C26.1847 16.8067 25.908 17.0667 25.5547 17.26C25.208 17.4533 24.808 17.6 24.3547 17.7C23.908 17.8 23.4414 17.88 22.9547 17.94C22.6814 18 22.348 18.0533 21.9547 18.1C21.568 18.1467 21.188 18.1833 20.8147 18.21C20.4414 18.2367 20.1447 18.25 19.9247 18.25C19.7247 18.25 19.5847 18.2767 19.5047 18.33C19.4314 18.3767 19.3947 18.47 19.3947 18.61C19.3947 18.75 19.4347 18.9167 19.5147 19.11C19.5947 19.3033 19.708 19.4867 19.8547 19.66C20.128 19.98 20.4447 20.1967 20.8047 20.31C21.1647 20.4167 21.6114 20.47 22.1447 20.47C22.638 20.47 23.1047 20.4067 23.5447 20.28C23.9914 20.1467 24.408 20.0167 24.7947 19.89C25.188 19.7567 25.5547 19.69 25.8947 19.69C26.2214 19.69 26.478 19.7533 26.6647 19.88C26.858 20 26.9547 20.2367 26.9547 20.59C26.9547 20.9033 26.828 21.1933 26.5747 21.46C26.328 21.72 25.9847 21.9433 25.5447 22.13C25.1114 22.3233 24.6047 22.4733 24.0247 22.58C23.4447 22.6867 22.828 22.74 22.1747 22.74ZM21.4547 16.95C21.9214 16.95 22.3614 16.9033 22.7747 16.81C23.188 16.71 23.5247 16.55 23.7847 16.33C24.0447 16.1033 24.1747 15.7967 24.1747 15.41C24.1747 14.9433 24.0047 14.6 23.6647 14.38C23.3314 14.16 22.868 14.05 22.2747 14.05C21.9214 14.05 21.578 14.1133 21.2447 14.24C20.9114 14.36 20.6114 14.53 20.3447 14.75C20.078 14.9633 19.8647 15.21 19.7047 15.49C19.5514 15.77 19.4747 16.0667 19.4747 16.38C19.4747 16.5533 19.5414 16.68 19.6747 16.76C19.808 16.84 20.018 16.8933 20.3047 16.92C20.598 16.94 20.9814 16.95 21.4547 16.95ZM33.9739 22.64C33.1672 22.64 32.4072 22.5333 31.6939 22.32C30.9872 22.1133 30.3606 21.8 29.8139 21.38C29.2739 20.9533 28.8506 20.4167 28.5439 19.77C28.2372 19.1233 28.0839 18.3633 28.0839 17.49C28.0839 16.5767 28.2239 15.7667 28.5039 15.06C28.7906 14.3467 29.1972 13.7433 29.7239 13.25C30.2572 12.7567 30.8972 12.3833 31.6439 12.13C32.3972 11.8767 33.2372 11.75 34.1639 11.75C34.8906 11.75 35.5039 11.8233 36.0039 11.97C36.5039 12.1167 36.8806 12.3033 37.1339 12.53C37.3939 12.7567 37.5239 12.9967 37.5239 13.25C37.5239 13.4167 37.4772 13.57 37.3839 13.71C37.2972 13.85 37.1806 13.96 37.0339 14.04C36.8939 14.12 36.7439 14.16 36.5839 14.16C36.4172 14.16 36.2439 14.13 36.0639 14.07C35.8906 14.01 35.6706 13.95 35.4039 13.89C35.1372 13.83 34.7906 13.8 34.3639 13.8C33.8906 13.8 33.4606 13.8767 33.0739 14.03C32.6872 14.1833 32.3506 14.4033 32.0639 14.69C31.7772 14.97 31.5572 15.3067 31.4039 15.7C31.2506 16.0867 31.1739 16.5133 31.1739 16.98C31.1739 17.6267 31.3006 18.17 31.5539 18.61C31.8072 19.0433 32.1572 19.37 32.6039 19.59C33.0572 19.81 33.5706 19.92 34.1439 19.92C34.6506 19.92 35.0906 19.87 35.4639 19.77C35.8439 19.6633 36.1706 19.5433 36.4439 19.41C36.7172 19.27 36.9472 19.15 37.1339 19.05C37.3206 18.95 37.4739 18.9 37.5939 18.9C37.8672 18.9 38.0772 18.96 38.2239 19.08C38.3772 19.2 38.4839 19.3467 38.5439 19.52C38.6039 19.6933 38.6339 19.8633 38.6339 20.03C38.6339 20.3767 38.5239 20.7067 38.3039 21.02C38.0839 21.3333 37.7706 21.6133 37.3639 21.86C36.9572 22.1 36.4672 22.29 35.8939 22.43C35.3206 22.57 34.6806 22.64 33.9739 22.64ZM41.4303 22.5C41.1236 22.5 40.8836 22.42 40.7103 22.26C40.537 22.1 40.4036 21.8633 40.3103 21.55C40.2703 21.3967 40.2336 21.18 40.2003 20.9C40.1736 20.62 40.147 20.29 40.1203 19.91C40.1003 19.53 40.0836 19.11 40.0703 18.65C40.057 18.1833 40.0503 17.6867 40.0503 17.16C40.0503 16.7133 40.0636 16.2567 40.0903 15.79C40.1236 15.3233 40.1703 14.86 40.2303 14.4C40.2903 13.94 40.3636 13.4933 40.4503 13.06C40.5436 12.62 40.6503 12.2067 40.7703 11.82C40.8903 11.4333 41.027 11.0833 41.1803 10.77C41.4003 10.3433 41.6603 10.0233 41.9603 9.81C42.2603 9.59 42.597 9.48 42.9703 9.48C43.3636 9.48 43.6736 9.61333 43.9003 9.88C44.127 10.14 44.2403 10.5167 44.2403 11.01C44.2403 11.2367 44.227 11.4867 44.2003 11.76C44.1803 12.0333 44.1503 12.3067 44.1103 12.58C44.077 12.8533 44.0403 13.12 44.0003 13.38C43.967 13.6333 43.937 13.8633 43.9103 14.07C43.8836 14.27 43.8703 14.4267 43.8703 14.54C43.8703 14.72 43.9136 14.81 44.0003 14.81C44.0803 14.81 44.1903 14.74 44.3303 14.6C44.477 14.4533 44.677 14.29 44.9303 14.11C45.1903 13.9233 45.5236 13.76 45.9303 13.62C46.3436 13.4733 46.8536 13.4 47.4603 13.4C48.1936 13.4 48.8036 13.5333 49.2903 13.8C49.7836 14.0667 50.1736 14.4233 50.4603 14.87C50.747 15.3167 50.9503 15.8133 51.0703 16.36C51.1903 16.9067 51.2503 17.4633 51.2503 18.03C51.2503 18.31 51.2336 18.61 51.2003 18.93C51.1736 19.25 51.1303 19.5667 51.0703 19.88C51.017 20.1933 50.9503 20.4867 50.8703 20.76C50.797 21.0333 50.717 21.2633 50.6303 21.45C50.4836 21.7233 50.2836 21.93 50.0303 22.07C49.7836 22.21 49.4736 22.28 49.1003 22.28C48.8003 22.28 48.567 22.2167 48.4003 22.09C48.2403 21.97 48.1203 21.8033 48.0403 21.59C48.0136 21.45 48.0003 21.2667 48.0003 21.04C48.0003 20.8067 48.007 20.5433 48.0203 20.25C48.0403 19.9567 48.0536 19.6533 48.0603 19.34C48.0736 19.02 48.0736 18.71 48.0603 18.41C48.047 18.09 48.0103 17.7767 47.9503 17.47C47.8903 17.1633 47.7936 16.8867 47.6603 16.64C47.527 16.3867 47.3403 16.1867 47.1003 16.04C46.867 15.8867 46.5703 15.81 46.2103 15.81C45.7703 15.81 45.3836 15.8867 45.0503 16.04C44.7236 16.1867 44.447 16.3767 44.2203 16.61C43.9936 16.8433 43.8136 17.09 43.6803 17.35C43.5536 17.6033 43.477 17.84 43.4503 18.06C43.4036 18.46 43.357 18.8267 43.3103 19.16C43.2703 19.4933 43.227 19.8 43.1803 20.08C43.1403 20.3533 43.0936 20.6067 43.0403 20.84C42.987 21.0667 42.9236 21.28 42.8503 21.48C42.7236 21.8133 42.5403 22.0667 42.3003 22.24C42.067 22.4133 41.777 22.5 41.4303 22.5ZM63.5933 22.49C62.9999 22.49 62.4199 22.4467 61.8533 22.36C61.2933 22.2733 60.7866 22.15 60.3333 21.99C59.8799 21.8233 59.5199 21.62 59.2533 21.38C58.9933 21.14 58.8633 20.8667 58.8633 20.56C58.8633 20.2733 58.9266 20.05 59.0533 19.89C59.1866 19.7233 59.3599 19.61 59.5733 19.55C59.7933 19.4833 60.0299 19.45 60.2833 19.45C60.3966 19.45 60.5666 19.4933 60.7933 19.58C61.0199 19.66 61.2966 19.7433 61.6233 19.83C61.9499 19.9167 62.3199 19.96 62.7333 19.96C63.2066 19.96 63.6199 19.9433 63.9733 19.91C64.3266 19.87 64.6199 19.8 64.8533 19.7C65.0933 19.6 65.2733 19.46 65.3933 19.28C65.5133 19.1 65.5733 18.8667 65.5733 18.58C65.5733 18.32 65.5033 18.09 65.3633 17.89C65.2299 17.69 65.0399 17.5067 64.7933 17.34C64.5533 17.1733 64.2666 17.0167 63.9333 16.87C63.6066 16.7233 63.2499 16.5733 62.8633 16.42C62.3566 16.2267 61.8833 16.02 61.4433 15.8C61.0099 15.5733 60.6266 15.32 60.2933 15.04C59.9599 14.76 59.6999 14.4467 59.5133 14.1C59.3266 13.7467 59.2333 13.3467 59.2333 12.9C59.2333 12.38 59.3566 11.93 59.6033 11.55C59.8499 11.17 60.1799 10.85 60.5933 10.59C61.0066 10.3233 61.4666 10.1133 61.9733 9.96C62.4866 9.8 63.0133 9.68667 63.5533 9.62C64.0933 9.54667 64.6066 9.51 65.0933 9.51C65.6399 9.51 66.1566 9.55 66.6433 9.63C67.1299 9.70333 67.5599 9.81333 67.9333 9.96C68.3133 10.1 68.6099 10.27 68.8233 10.47C69.0366 10.67 69.1433 10.8967 69.1433 11.15C69.1433 11.4033 69.0833 11.61 68.9633 11.77C68.8433 11.93 68.6866 12.05 68.4933 12.13C68.3066 12.2033 68.1033 12.24 67.8833 12.24C67.7566 12.24 67.5899 12.1933 67.3833 12.1C67.1833 12 66.9299 11.9033 66.6233 11.81C66.3233 11.7167 65.9533 11.67 65.5133 11.67C65.2266 11.67 64.9433 11.6933 64.6633 11.74C64.3899 11.78 64.1399 11.85 63.9133 11.95C63.6866 12.0433 63.5066 12.1733 63.3733 12.34C63.2399 12.5067 63.1733 12.72 63.1733 12.98C63.1733 13.24 63.2399 13.47 63.3733 13.67C63.5066 13.8633 63.6899 14.04 63.9233 14.2C64.1566 14.3533 64.4299 14.5033 64.7433 14.65C65.0633 14.79 65.4066 14.9333 65.7733 15.08C66.2733 15.28 66.7533 15.5067 67.2133 15.76C67.6799 16.0067 68.0966 16.29 68.4633 16.61C68.8299 16.9233 69.1166 17.2767 69.3233 17.67C69.5366 18.0633 69.6433 18.5067 69.6433 19C69.6433 19.64 69.4833 20.1833 69.1633 20.63C68.8499 21.0767 68.4133 21.4367 67.8533 21.71C67.2999 21.9833 66.6566 22.18 65.9233 22.3C65.1966 22.4267 64.4199 22.49 63.5933 22.49ZM76.9892 22.22C76.5559 22.22 76.1326 22.1567 75.7192 22.03C75.3126 21.91 74.9692 21.6933 74.6892 21.38C74.4092 21.0667 74.2526 20.63 74.2192 20.07C74.1992 19.8833 74.1826 19.68 74.1692 19.46C74.1559 19.2333 74.1426 18.9933 74.1292 18.74C74.1226 18.4867 74.1126 18.2267 74.0992 17.96C74.0926 17.6867 74.0859 17.4133 74.0792 17.14C74.0792 16.86 74.0759 16.5867 74.0692 16.32C74.0692 16.02 74.0092 15.8267 73.8892 15.74C73.7692 15.6467 73.5959 15.59 73.3692 15.57C73.2426 15.5567 73.0859 15.5467 72.8992 15.54C72.7192 15.5267 72.5326 15.5133 72.3392 15.5C72.1459 15.4867 71.9659 15.4733 71.7992 15.46C71.5126 15.4267 71.2892 15.32 71.1292 15.14C70.9759 14.96 70.8992 14.7067 70.8992 14.38C70.8992 14.1533 70.9459 13.98 71.0392 13.86C71.1326 13.74 71.2592 13.65 71.4192 13.59C71.5792 13.5233 71.7592 13.4733 71.9592 13.44C72.2926 13.4067 72.5726 13.3733 72.7992 13.34C73.0326 13.3067 73.2459 13.2767 73.4392 13.25C73.6459 13.2233 73.7992 13.1667 73.8992 13.08C73.9992 12.9867 74.0592 12.8267 74.0792 12.6C74.0992 12.4533 74.1159 12.2933 74.1292 12.12C74.1426 11.9467 74.1592 11.7733 74.1792 11.6C74.1992 11.4267 74.2226 11.2767 74.2492 11.15C74.3426 10.81 74.4692 10.56 74.6292 10.4C74.7959 10.24 75.0559 10.16 75.4092 10.16C75.6959 10.16 75.9226 10.2033 76.0892 10.29C76.2559 10.37 76.3826 10.4967 76.4692 10.67C76.5559 10.8367 76.6226 11.0567 76.6692 11.33C76.6892 11.5167 76.7059 11.6833 76.7192 11.83C76.7326 11.9767 76.7426 12.1133 76.7492 12.24C76.7626 12.36 76.7759 12.4733 76.7892 12.58C76.8026 12.6867 76.8159 12.7933 76.8292 12.9C76.8492 13.1 76.9192 13.2467 77.0392 13.34C77.1592 13.4267 77.3192 13.4833 77.5192 13.51C77.6992 13.53 77.8859 13.5533 78.0792 13.58C78.2792 13.6 78.4726 13.62 78.6592 13.64C78.8459 13.6533 79.0092 13.6733 79.1492 13.7C79.4492 13.74 79.7092 13.83 79.9292 13.97C80.1492 14.1033 80.2592 14.3333 80.2592 14.66C80.2592 14.9467 80.1692 15.1767 79.9892 15.35C79.8092 15.5233 79.5759 15.62 79.2892 15.64C78.9159 15.6533 78.5659 15.6633 78.2392 15.67C77.9126 15.67 77.6559 15.6767 77.4692 15.69C77.3226 15.6967 77.1992 15.74 77.0992 15.82C77.0059 15.9 76.9526 16.0867 76.9392 16.38C76.9326 16.6 76.9292 16.8233 76.9292 17.05C76.9292 17.2767 76.9326 17.5033 76.9392 17.73C76.9459 17.9567 76.9526 18.18 76.9592 18.4C76.9726 18.6133 76.9859 18.8167 76.9992 19.01C77.0192 19.2033 77.0392 19.3833 77.0592 19.55C77.0992 19.89 77.1859 20.1267 77.3192 20.26C77.4526 20.3867 77.6459 20.45 77.8992 20.45C78.1659 20.45 78.3759 20.3967 78.5292 20.29C78.6892 20.1833 78.8292 20.0767 78.9492 19.97C79.0692 19.8633 79.2026 19.81 79.3492 19.81C79.5559 19.81 79.7026 19.8633 79.7892 19.97C79.8759 20.0767 79.9192 20.2333 79.9192 20.44C79.9192 20.6933 79.8326 20.9267 79.6592 21.14C79.4859 21.3533 79.2559 21.5433 78.9692 21.71C78.6826 21.87 78.3659 21.9933 78.0192 22.08C77.6792 22.1733 77.3359 22.22 76.9892 22.22ZM87.2027 22.54C86.4027 22.54 85.636 22.4533 84.9027 22.28C84.1693 22.1067 83.5127 21.83 82.9327 21.45C82.3527 21.07 81.8927 20.5733 81.5527 19.96C81.2193 19.3467 81.0527 18.6 81.0527 17.72C81.0527 16.7533 81.216 15.9067 81.5427 15.18C81.8693 14.4467 82.3193 13.8333 82.8927 13.34C83.466 12.8467 84.1293 12.4767 84.8827 12.23C85.6427 11.9833 86.4527 11.86 87.3127 11.86C88.1127 11.86 88.8827 11.96 89.6227 12.16C90.3693 12.36 91.0327 12.6733 91.6127 13.1C92.1993 13.52 92.6627 14.0633 93.0027 14.73C93.3427 15.3967 93.5127 16.1933 93.5127 17.12C93.5127 17.8333 93.3627 18.5167 93.0627 19.17C92.7627 19.8167 92.3327 20.3933 91.7727 20.9C91.2127 21.4067 90.546 21.8067 89.7727 22.1C89.006 22.3933 88.1493 22.54 87.2027 22.54ZM87.0727 19.83C87.6593 19.83 88.1593 19.74 88.5727 19.56C88.9927 19.3733 89.3327 19.13 89.5927 18.83C89.8527 18.53 90.0427 18.2033 90.1627 17.85C90.2827 17.49 90.3427 17.1333 90.3427 16.78C90.3427 16.3 90.2493 15.89 90.0627 15.55C89.876 15.21 89.626 14.9367 89.3127 14.73C88.9993 14.5167 88.6493 14.3633 88.2627 14.27C87.876 14.17 87.4827 14.12 87.0827 14.12C86.556 14.12 86.0593 14.2333 85.5927 14.46C85.126 14.68 84.746 15.0167 84.4527 15.47C84.166 15.9167 84.0227 16.48 84.0227 17.16C84.0227 17.7133 84.1393 18.19 84.3727 18.59C84.6127 18.99 84.9593 19.2967 85.4127 19.51C85.866 19.7233 86.4193 19.83 87.0727 19.83ZM97.5145 22.3C97.2745 22.3 97.0612 22.26 96.8745 22.18C96.6879 22.1 96.5212 21.99 96.3745 21.85C96.2345 21.71 96.1045 21.5433 95.9845 21.35C95.8512 21.0967 95.7279 20.8067 95.6145 20.48C95.5079 20.1533 95.4179 19.81 95.3445 19.45C95.2712 19.09 95.2145 18.73 95.1745 18.37C95.1345 18.01 95.1145 17.67 95.1145 17.35C95.1145 16.25 95.3312 15.32 95.7645 14.56C96.1979 13.7933 96.8145 13.21 97.6145 12.81C98.4212 12.41 99.3745 12.21 100.475 12.21C100.961 12.21 101.431 12.2467 101.885 12.32C102.338 12.3933 102.745 12.5067 103.105 12.66C103.465 12.8067 103.748 12.9933 103.955 13.22C104.168 13.44 104.275 13.6967 104.275 13.99C104.275 14.2567 104.221 14.4667 104.115 14.62C104.008 14.7733 103.868 14.88 103.695 14.94C103.521 15 103.341 15.03 103.155 15.03C102.821 15.03 102.475 14.98 102.115 14.88C101.761 14.78 101.315 14.73 100.775 14.73C100.015 14.73 99.4379 14.9633 99.0445 15.43C98.6579 15.89 98.4645 16.53 98.4645 17.35C98.4645 17.65 98.4779 17.9433 98.5045 18.23C98.5312 18.51 98.5645 18.78 98.6045 19.04C98.6512 19.3 98.6945 19.5433 98.7345 19.77C98.7812 19.9967 98.8179 20.2 98.8445 20.38C98.8712 20.56 98.8845 20.7167 98.8845 20.85C98.8845 21.35 98.7712 21.7167 98.5445 21.95C98.3245 22.1833 97.9812 22.3 97.5145 22.3ZM110.866 22.74C109.726 22.74 108.736 22.5667 107.896 22.22C107.056 21.8733 106.406 21.34 105.946 20.62C105.493 19.9 105.266 18.9867 105.266 17.88C105.266 16.96 105.419 16.1567 105.726 15.47C106.033 14.7767 106.456 14.2 106.996 13.74C107.543 13.2733 108.173 12.9233 108.886 12.69C109.599 12.45 110.359 12.33 111.166 12.33C111.713 12.33 112.239 12.3867 112.746 12.5C113.253 12.6067 113.703 12.7767 114.096 13.01C114.496 13.2433 114.809 13.5433 115.036 13.91C115.269 14.2767 115.386 14.72 115.386 15.24C115.386 15.74 115.283 16.1533 115.076 16.48C114.876 16.8067 114.599 17.0667 114.246 17.26C113.899 17.4533 113.499 17.6 113.046 17.7C112.599 17.8 112.133 17.88 111.646 17.94C111.373 18 111.039 18.0533 110.646 18.1C110.259 18.1467 109.879 18.1833 109.506 18.21C109.133 18.2367 108.836 18.25 108.616 18.25C108.416 18.25 108.276 18.2767 108.196 18.33C108.123 18.3767 108.086 18.47 108.086 18.61C108.086 18.75 108.126 18.9167 108.206 19.11C108.286 19.3033 108.399 19.4867 108.546 19.66C108.819 19.98 109.136 20.1967 109.496 20.31C109.856 20.4167 110.303 20.47 110.836 20.47C111.329 20.47 111.796 20.4067 112.236 20.28C112.683 20.1467 113.099 20.0167 113.486 19.89C113.879 19.7567 114.246 19.69 114.586 19.69C114.913 19.69 115.169 19.7533 115.356 19.88C115.549 20 115.646 20.2367 115.646 20.59C115.646 20.9033 115.519 21.1933 115.266 21.46C115.019 21.72 114.676 21.9433 114.236 22.13C113.803 22.3233 113.296 22.4733 112.716 22.58C112.136 22.6867 111.519 22.74 110.866 22.74ZM110.146 16.95C110.613 16.95 111.053 16.9033 111.466 16.81C111.879 16.71 112.216 16.55 112.476 16.33C112.736 16.1033 112.866 15.7967 112.866 15.41C112.866 14.9433 112.696 14.6 112.356 14.38C112.023 14.16 111.559 14.05 110.966 14.05C110.613 14.05 110.269 14.1133 109.936 14.24C109.603 14.36 109.303 14.53 109.036 14.75C108.769 14.9633 108.556 15.21 108.396 15.49C108.243 15.77 108.166 16.0667 108.166 16.38C108.166 16.5533 108.233 16.68 108.366 16.76C108.499 16.84 108.709 16.8933 108.996 16.92C109.289 16.94 109.673 16.95 110.146 16.95Z"/>
</svg>
